# xmcd
#
# Track frame offsets:
#	150
#	20923
#	36890
#	58308
#	78158
#	92955
#	116450
#	135373
#	159403
#	172923
#	189765
#	214123
#
# Disc length: 3145 seconds
#
# Revision: 0
# Processed by: cddbd v1.4PL0 Copyright (c) Steve Scherf et al.
# Submitted via: EasyCDDAExtractor 4.6.0.1
#
DISCID=970c470c
DTITLE=Martyna Jakubowicz - kolysz mnie CD2
DYEAR=1992
DGENRE=Blues
TTITLE0=w domach zbetonu nie ma wolnej milosci
TTITLE1=rosa taka sama od lat
TTITLE2=ludzie bladza
TTITLE3=gdyby nie nasz fart
TTITLE4=wrozba nie sluzba
TTITLE5=wschodnia wioska
TTITLE6=wiedza jest grzechem
TTITLE7=baby w meksyku
TTITLE8=kretyny i osly
TTITLE9=wokol strazniczych wiez
TTITLE10=chodz i usiadz obok mnie
TTITLE11=chce ci dac troche wiary w cud (kolysanka dla misiakow)
EXTD=http://nav.to/wojtus                                       (collection)
EXTT0=
EXTT1=
EXTT2=
EXTT3=
EXTT4=
EXTT5=
EXTT6=
EXTT7=
EXTT8=
EXTT9=
EXTT10=
EXTT11=
PLAYORDER=
